<mxfile host="app.diagrams.net" modified="2021-01-15T02:00:34.374Z" agent="5.0 (Windows)" etag="IvejsU0K-djq_998o_qA" version="14.2.3" type="github">
  <diagram name="Page-1" id="9f46799a-70d6-7492-0946-bef42562c5a5">
    <mxGraphModel dx="1108" dy="791" grid="1" gridSize="10" guides="1" tooltips="1" connect="1" arrows="1" fold="1" page="1" pageScale="1" pageWidth="1100" pageHeight="850" background="#ffffff" math="0" shadow="0">
      <root>
        <mxCell id="0" />
        <mxCell id="1" parent="0" />
        <mxCell id="-1fxc4yib7ofRESS5T0K-13" style="edgeStyle=orthogonalEdgeStyle;rounded=0;orthogonalLoop=1;jettySize=auto;html=1;exitX=1;exitY=0.5;exitDx=0;exitDy=0;entryX=0;entryY=0.5;entryDx=0;entryDy=0;fontFamily=Verdana;" edge="1" parent="1" source="WWAp1A02eeEXavUCdxNv-15" target="WWAp1A02eeEXavUCdxNv-18">
          <mxGeometry relative="1" as="geometry" />
        </mxCell>
        <mxCell id="-1fxc4yib7ofRESS5T0K-14" style="edgeStyle=orthogonalEdgeStyle;rounded=0;orthogonalLoop=1;jettySize=auto;html=1;exitX=1;exitY=0.5;exitDx=0;exitDy=0;entryX=0;entryY=0.5;entryDx=0;entryDy=0;fontFamily=Verdana;" edge="1" parent="1" source="WWAp1A02eeEXavUCdxNv-15" target="WWAp1A02eeEXavUCdxNv-27">
          <mxGeometry relative="1" as="geometry" />
        </mxCell>
        <mxCell id="-1fxc4yib7ofRESS5T0K-15" style="edgeStyle=orthogonalEdgeStyle;rounded=0;orthogonalLoop=1;jettySize=auto;html=1;exitX=1;exitY=0.5;exitDx=0;exitDy=0;entryX=0;entryY=0.5;entryDx=0;entryDy=0;fontFamily=Verdana;" edge="1" parent="1" source="WWAp1A02eeEXavUCdxNv-15" target="WWAp1A02eeEXavUCdxNv-31">
          <mxGeometry relative="1" as="geometry" />
        </mxCell>
        <mxCell id="-1fxc4yib7ofRESS5T0K-16" style="edgeStyle=orthogonalEdgeStyle;rounded=0;orthogonalLoop=1;jettySize=auto;html=1;exitX=1;exitY=0.5;exitDx=0;exitDy=0;entryX=0;entryY=0.5;entryDx=0;entryDy=0;fontFamily=Verdana;" edge="1" parent="1" source="WWAp1A02eeEXavUCdxNv-15" target="ln_ZyMrxEjAvicW-0nf5-22">
          <mxGeometry relative="1" as="geometry" />
        </mxCell>
        <mxCell id="-1fxc4yib7ofRESS5T0K-17" style="edgeStyle=orthogonalEdgeStyle;rounded=0;orthogonalLoop=1;jettySize=auto;html=1;exitX=1;exitY=0.5;exitDx=0;exitDy=0;entryX=0;entryY=0.5;entryDx=0;entryDy=0;fontFamily=Verdana;" edge="1" parent="1" source="WWAp1A02eeEXavUCdxNv-15" target="ln_ZyMrxEjAvicW-0nf5-10">
          <mxGeometry relative="1" as="geometry" />
        </mxCell>
        <mxCell id="WWAp1A02eeEXavUCdxNv-15" value="&lt;div style=&quot;font-size: 14px;&quot;&gt;Gateway&lt;/div&gt;&lt;div style=&quot;font-size: 14px;&quot;&gt;API&lt;/div&gt;" style="shape=rhombus;html=1;dashed=0;whitespace=wrap;perimeter=rhombusPerimeter;whiteSpace=wrap;fontSize=14;fontFamily=Verdana;" parent="1" vertex="1">
          <mxGeometry x="450" y="350" width="90" height="100" as="geometry" />
        </mxCell>
        <mxCell id="WWAp1A02eeEXavUCdxNv-20" value="" style="group;fontFamily=Verdana;" parent="1" vertex="1" connectable="0">
          <mxGeometry x="630" y="70" width="170" height="80" as="geometry" />
        </mxCell>
        <mxCell id="WWAp1A02eeEXavUCdxNv-17" value="" style="html=1;dashed=0;whitespace=wrap;whiteSpace=wrap;fontFamily=Verdana;" parent="WWAp1A02eeEXavUCdxNv-20" vertex="1">
          <mxGeometry x="30" width="140" height="80" as="geometry" />
        </mxCell>
        <mxCell id="WWAp1A02eeEXavUCdxNv-18" value="&lt;div&gt;AMQP &lt;br&gt;&lt;/div&gt;&lt;div&gt;API&lt;/div&gt;" style="shape=rhombus;html=1;dashed=0;whitespace=wrap;perimeter=rhombusPerimeter;whiteSpace=wrap;fontSize=12;fontFamily=Verdana;" parent="WWAp1A02eeEXavUCdxNv-20" vertex="1">
          <mxGeometry y="10" width="60" height="60" as="geometry" />
        </mxCell>
        <mxCell id="WWAp1A02eeEXavUCdxNv-19" value="User Authentication Service" style="text;html=1;strokeColor=none;fillColor=none;align=center;verticalAlign=middle;whiteSpace=wrap;rounded=0;dashed=1;fontSize=14;fontFamily=Verdana;" parent="WWAp1A02eeEXavUCdxNv-20" vertex="1">
          <mxGeometry x="60" width="110" height="80" as="geometry" />
        </mxCell>
        <mxCell id="WWAp1A02eeEXavUCdxNv-25" value="" style="group;fontFamily=Verdana;" parent="1" vertex="1" connectable="0">
          <mxGeometry x="630" y="170" width="170" height="80" as="geometry" />
        </mxCell>
        <mxCell id="WWAp1A02eeEXavUCdxNv-26" value="" style="html=1;dashed=0;whitespace=wrap;whiteSpace=wrap;fontFamily=Verdana;" parent="WWAp1A02eeEXavUCdxNv-25" vertex="1">
          <mxGeometry x="30" width="140" height="80" as="geometry" />
        </mxCell>
        <mxCell id="WWAp1A02eeEXavUCdxNv-27" value="&lt;div&gt;AMQP &lt;br&gt;&lt;/div&gt;&lt;div&gt;API&lt;/div&gt;" style="shape=rhombus;html=1;dashed=0;whitespace=wrap;perimeter=rhombusPerimeter;whiteSpace=wrap;fontSize=12;fontFamily=Verdana;" parent="WWAp1A02eeEXavUCdxNv-25" vertex="1">
          <mxGeometry y="10" width="60" height="60" as="geometry" />
        </mxCell>
        <mxCell id="WWAp1A02eeEXavUCdxNv-28" value="Bank Accounts Service" style="text;html=1;strokeColor=none;fillColor=none;align=center;verticalAlign=middle;whiteSpace=wrap;rounded=0;dashed=1;fontSize=14;fontFamily=Verdana;" parent="WWAp1A02eeEXavUCdxNv-25" vertex="1">
          <mxGeometry x="60" width="110" height="80" as="geometry" />
        </mxCell>
        <mxCell id="WWAp1A02eeEXavUCdxNv-29" value="" style="group;fontFamily=Verdana;" parent="1" vertex="1" connectable="0">
          <mxGeometry x="630" y="280" width="170" height="190" as="geometry" />
        </mxCell>
        <mxCell id="WWAp1A02eeEXavUCdxNv-30" value="" style="html=1;dashed=0;whitespace=wrap;whiteSpace=wrap;fontFamily=Verdana;" parent="WWAp1A02eeEXavUCdxNv-29" vertex="1">
          <mxGeometry x="30" width="140" height="80" as="geometry" />
        </mxCell>
        <mxCell id="WWAp1A02eeEXavUCdxNv-31" value="&lt;div&gt;AMQP &lt;br&gt;&lt;/div&gt;&lt;div&gt;API&lt;/div&gt;" style="shape=rhombus;html=1;dashed=0;whitespace=wrap;perimeter=rhombusPerimeter;whiteSpace=wrap;fontSize=12;fontFamily=Verdana;" parent="WWAp1A02eeEXavUCdxNv-29" vertex="1">
          <mxGeometry y="10" width="60" height="60" as="geometry" />
        </mxCell>
        <mxCell id="WWAp1A02eeEXavUCdxNv-32" value="Transaction Service" style="text;html=1;strokeColor=none;fillColor=none;align=center;verticalAlign=middle;whiteSpace=wrap;rounded=0;dashed=1;fontSize=14;fontFamily=Verdana;" parent="WWAp1A02eeEXavUCdxNv-29" vertex="1">
          <mxGeometry x="60" width="110" height="80" as="geometry" />
        </mxCell>
        <mxCell id="-1fxc4yib7ofRESS5T0K-24" value="Balance Service" style="text;html=1;strokeColor=none;fillColor=none;align=center;verticalAlign=middle;whiteSpace=wrap;rounded=0;dashed=1;fontSize=14;fontFamily=Verdana;" vertex="1" parent="WWAp1A02eeEXavUCdxNv-29">
          <mxGeometry x="60" y="110" width="110" height="80" as="geometry" />
        </mxCell>
        <mxCell id="ln_ZyMrxEjAvicW-0nf5-8" value="" style="group;fontFamily=Verdana;" parent="1" vertex="1" connectable="0">
          <mxGeometry x="630" y="500" width="170" height="80" as="geometry" />
        </mxCell>
        <mxCell id="ln_ZyMrxEjAvicW-0nf5-9" value="" style="html=1;dashed=0;whitespace=wrap;whiteSpace=wrap;fontFamily=Verdana;" parent="ln_ZyMrxEjAvicW-0nf5-8" vertex="1">
          <mxGeometry x="30" width="140" height="80" as="geometry" />
        </mxCell>
        <mxCell id="ln_ZyMrxEjAvicW-0nf5-10" value="&lt;div&gt;AMQP &lt;br&gt;&lt;/div&gt;&lt;div&gt;API&lt;/div&gt;" style="shape=rhombus;html=1;dashed=0;whitespace=wrap;perimeter=rhombusPerimeter;whiteSpace=wrap;fontSize=12;fontFamily=Verdana;" parent="ln_ZyMrxEjAvicW-0nf5-8" vertex="1">
          <mxGeometry y="10" width="60" height="60" as="geometry" />
        </mxCell>
        <mxCell id="ln_ZyMrxEjAvicW-0nf5-11" value="Budget Item Service" style="text;html=1;strokeColor=none;fillColor=none;align=center;verticalAlign=middle;whiteSpace=wrap;rounded=0;dashed=1;fontSize=14;fontFamily=Verdana;" parent="ln_ZyMrxEjAvicW-0nf5-8" vertex="1">
          <mxGeometry x="60" width="110" height="80" as="geometry" />
        </mxCell>
        <mxCell id="ln_ZyMrxEjAvicW-0nf5-20" value="" style="group;fontFamily=Verdana;" parent="1" vertex="1" connectable="0">
          <mxGeometry x="630" y="390" width="170" height="80" as="geometry" />
        </mxCell>
        <mxCell id="ln_ZyMrxEjAvicW-0nf5-21" value="" style="html=1;dashed=0;whitespace=wrap;whiteSpace=wrap;fontFamily=Verdana;" parent="ln_ZyMrxEjAvicW-0nf5-20" vertex="1">
          <mxGeometry x="30" width="140" height="80" as="geometry" />
        </mxCell>
        <mxCell id="ln_ZyMrxEjAvicW-0nf5-22" value="&lt;div&gt;AMQP &lt;br&gt;&lt;/div&gt;&lt;div&gt;API&lt;/div&gt;" style="shape=rhombus;html=1;dashed=0;whitespace=wrap;perimeter=rhombusPerimeter;whiteSpace=wrap;fontSize=12;fontFamily=Verdana;" parent="ln_ZyMrxEjAvicW-0nf5-20" vertex="1">
          <mxGeometry y="10" width="60" height="60" as="geometry" />
        </mxCell>
        <mxCell id="ln_ZyMrxEjAvicW-0nf5-23" value="Balance Service" style="text;html=1;strokeColor=none;fillColor=none;align=center;verticalAlign=middle;whiteSpace=wrap;rounded=0;dashed=1;fontSize=14;fontFamily=Verdana;" parent="ln_ZyMrxEjAvicW-0nf5-20" vertex="1">
          <mxGeometry x="60" width="110" height="80" as="geometry" />
        </mxCell>
        <mxCell id="ln_ZyMrxEjAvicW-0nf5-34" style="edgeStyle=orthogonalEdgeStyle;rounded=0;orthogonalLoop=1;jettySize=auto;html=1;exitX=1;exitY=0.75;exitDx=0;exitDy=0;startArrow=none;startFill=0;entryX=0;entryY=0;entryDx=0;entryDy=0;fontFamily=Verdana;" parent="1" source="WWAp1A02eeEXavUCdxNv-32" target="ln_ZyMrxEjAvicW-0nf5-22" edge="1">
          <mxGeometry relative="1" as="geometry">
            <mxPoint x="870" y="310" as="targetPoint" />
          </mxGeometry>
        </mxCell>
        <mxCell id="ln_ZyMrxEjAvicW-0nf5-35" style="edgeStyle=orthogonalEdgeStyle;rounded=0;orthogonalLoop=1;jettySize=auto;html=1;exitX=1;exitY=0.75;exitDx=0;exitDy=0;entryX=0;entryY=0;entryDx=0;entryDy=0;fontFamily=Verdana;" parent="1" source="WWAp1A02eeEXavUCdxNv-28" target="WWAp1A02eeEXavUCdxNv-31" edge="1">
          <mxGeometry relative="1" as="geometry" />
        </mxCell>
        <mxCell id="ln_ZyMrxEjAvicW-0nf5-33" style="edgeStyle=orthogonalEdgeStyle;rounded=0;orthogonalLoop=1;jettySize=auto;html=1;exitX=1;exitY=0.25;exitDx=0;exitDy=0;entryX=0;entryY=1;entryDx=0;entryDy=0;fontFamily=Verdana;" parent="1" source="ln_ZyMrxEjAvicW-0nf5-11" target="ln_ZyMrxEjAvicW-0nf5-22" edge="1">
          <mxGeometry relative="1" as="geometry">
            <mxPoint x="790" y="530" as="sourcePoint" />
          </mxGeometry>
        </mxCell>
        <mxCell id="FyMcj3_5UNK_IZjX0zsP-1" style="edgeStyle=orthogonalEdgeStyle;rounded=0;orthogonalLoop=1;jettySize=auto;html=1;startArrow=none;startFill=0;entryX=0;entryY=1;entryDx=0;entryDy=0;exitX=1;exitY=0.25;exitDx=0;exitDy=0;fontFamily=Verdana;" parent="1" source="WWAp1A02eeEXavUCdxNv-32" target="ln_ZyMrxEjAvicW-0nf5-10" edge="1">
          <mxGeometry relative="1" as="geometry">
            <mxPoint x="860" y="580" as="targetPoint" />
            <Array as="points">
              <mxPoint x="830" y="300" />
              <mxPoint x="830" y="620" />
              <mxPoint x="645" y="620" />
            </Array>
          </mxGeometry>
        </mxCell>
        <mxCell id="-1fxc4yib7ofRESS5T0K-5" value="" style="endArrow=none;dashed=1;html=1;entryX=0;entryY=0.5;entryDx=0;entryDy=0;entryPerimeter=0;exitX=1;exitY=0.75;exitDx=0;exitDy=0;fontFamily=Verdana;" edge="1" parent="1" source="WWAp1A02eeEXavUCdxNv-28" target="-1fxc4yib7ofRESS5T0K-1">
          <mxGeometry width="50" height="50" relative="1" as="geometry">
            <mxPoint x="870" y="420" as="sourcePoint" />
            <mxPoint x="980" y="340" as="targetPoint" />
          </mxGeometry>
        </mxCell>
        <mxCell id="-1fxc4yib7ofRESS5T0K-7" value="" style="endArrow=none;dashed=1;html=1;entryX=0;entryY=0.5;entryDx=0;entryDy=0;entryPerimeter=0;exitX=1;exitY=0.25;exitDx=0;exitDy=0;fontFamily=Verdana;" edge="1" parent="1" source="WWAp1A02eeEXavUCdxNv-32" target="-1fxc4yib7ofRESS5T0K-6">
          <mxGeometry width="50" height="50" relative="1" as="geometry">
            <mxPoint x="800" y="480" as="sourcePoint" />
            <mxPoint x="910" y="400" as="targetPoint" />
          </mxGeometry>
        </mxCell>
        <mxCell id="-1fxc4yib7ofRESS5T0K-1" value="When Plaid pulls down new info for a bank account, Transactions need pushed to Transaction Service" style="shape=note;size=20;whiteSpace=wrap;html=1;spacing=8;align=left;fontFamily=Verdana;" vertex="1" parent="1">
          <mxGeometry x="860" y="180" width="200" height="70" as="geometry" />
        </mxCell>
        <mxCell id="-1fxc4yib7ofRESS5T0K-6" value="When a Transaction updates it&#39;s `spent_from` property, the appropriate Budget Items need their `assoc_trans` properties updated" style="shape=note;size=20;whiteSpace=wrap;html=1;spacing=8;align=left;fontFamily=Verdana;" vertex="1" parent="1">
          <mxGeometry x="860" y="270" width="200" height="90" as="geometry" />
        </mxCell>
        <mxCell id="-1fxc4yib7ofRESS5T0K-9" value="" style="endArrow=none;dashed=1;html=1;entryX=0;entryY=0.5;entryDx=0;entryDy=0;entryPerimeter=0;exitX=1;exitY=0.75;exitDx=0;exitDy=0;fontFamily=Verdana;" edge="1" parent="1" target="-1fxc4yib7ofRESS5T0K-10" source="WWAp1A02eeEXavUCdxNv-32">
          <mxGeometry width="50" height="50" relative="1" as="geometry">
            <mxPoint x="790" y="405" as="sourcePoint" />
            <mxPoint x="910" y="505" as="targetPoint" />
          </mxGeometry>
        </mxCell>
        <mxCell id="-1fxc4yib7ofRESS5T0K-10" value="When new transactions are updated, Balance needs recalculated" style="shape=note;size=20;whiteSpace=wrap;html=1;spacing=8;align=left;fontFamily=Verdana;" vertex="1" parent="1">
          <mxGeometry x="860" y="380" width="200" height="60" as="geometry" />
        </mxCell>
        <mxCell id="-1fxc4yib7ofRESS5T0K-11" value="" style="endArrow=none;dashed=1;html=1;entryX=0;entryY=0.5;entryDx=0;entryDy=0;entryPerimeter=0;exitX=1;exitY=0.25;exitDx=0;exitDy=0;fontFamily=Verdana;" edge="1" parent="1" target="-1fxc4yib7ofRESS5T0K-12" source="ln_ZyMrxEjAvicW-0nf5-11">
          <mxGeometry width="50" height="50" relative="1" as="geometry">
            <mxPoint x="793" y="428" as="sourcePoint" />
            <mxPoint x="910" y="585" as="targetPoint" />
          </mxGeometry>
        </mxCell>
        <mxCell id="-1fxc4yib7ofRESS5T0K-12" value="When Budget Item&#39;s available_funds are updated, Balance needs recalculated" style="shape=note;size=20;whiteSpace=wrap;html=1;spacing=8;align=left;fontFamily=Verdana;" vertex="1" parent="1">
          <mxGeometry x="860" y="460" width="200" height="60" as="geometry" />
        </mxCell>
        <mxCell id="-1fxc4yib7ofRESS5T0K-18" style="edgeStyle=orthogonalEdgeStyle;rounded=0;orthogonalLoop=1;jettySize=auto;html=1;exitX=0;exitY=0.5;exitDx=0;exitDy=0;entryX=1;entryY=0.5;entryDx=0;entryDy=0;fontFamily=Verdana;" edge="1" parent="1" source="ln_ZyMrxEjAvicW-0nf5-10" target="WWAp1A02eeEXavUCdxNv-15">
          <mxGeometry relative="1" as="geometry" />
        </mxCell>
        <mxCell id="-1fxc4yib7ofRESS5T0K-19" value="" style="rounded=1;absoluteArcSize=1;html=1;arcSize=10;align=left;" vertex="1" parent="1">
          <mxGeometry x="40" y="40" width="280" height="570" as="geometry" />
        </mxCell>
        <mxCell id="-1fxc4yib7ofRESS5T0K-37" value="" style="rounded=1;absoluteArcSize=1;html=1;arcSize=10;whiteSpace=wrap;points=[];strokeColor=inherit;fillColor=inherit;" vertex="1" parent="-1fxc4yib7ofRESS5T0K-19">
          <mxGeometry x="20" y="300" width="240" height="240" as="geometry" />
        </mxCell>
        <mxCell id="-1fxc4yib7ofRESS5T0K-20" value="Client Views" style="html=1;shape=mxgraph.er.anchor;whiteSpace=wrap;fontFamily=Verdana;fontSize=24;" vertex="1" parent="-1fxc4yib7ofRESS5T0K-19">
          <mxGeometry width="280" height="40" as="geometry" />
        </mxCell>
        <mxCell id="-1fxc4yib7ofRESS5T0K-22" value="User Login" style="whiteSpace=wrap;html=1;align=center;rounded=1;fontFamily=Verdana;fontSize=14;" vertex="1" parent="-1fxc4yib7ofRESS5T0K-19">
          <mxGeometry x="40" y="60" width="200" height="40" as="geometry" />
        </mxCell>
        <mxCell id="-1fxc4yib7ofRESS5T0K-25" value="&lt;div&gt;User Management&lt;/div&gt;" style="whiteSpace=wrap;html=1;align=center;rounded=1;fontFamily=Verdana;fontSize=14;" vertex="1" parent="-1fxc4yib7ofRESS5T0K-19">
          <mxGeometry x="40" y="120" width="200" height="40" as="geometry" />
        </mxCell>
        <mxCell id="-1fxc4yib7ofRESS5T0K-26" value="Balance" style="whiteSpace=wrap;html=1;align=center;rounded=1;fontFamily=Verdana;fontSize=14;" vertex="1" parent="-1fxc4yib7ofRESS5T0K-19">
          <mxGeometry x="40" y="180" width="200" height="40" as="geometry" />
        </mxCell>
        <mxCell id="-1fxc4yib7ofRESS5T0K-27" value="Transactions" style="whiteSpace=wrap;html=1;align=center;rounded=1;fontFamily=Verdana;fontSize=14;" vertex="1" parent="-1fxc4yib7ofRESS5T0K-19">
          <mxGeometry x="40" y="240" width="200" height="40" as="geometry" />
        </mxCell>
        <mxCell id="-1fxc4yib7ofRESS5T0K-38" value="Budget Views" style="text;html=1;strokeColor=none;fillColor=none;align=center;verticalAlign=middle;whiteSpace=wrap;rounded=0;fontFamily=Verdana;fontSize=14;" vertex="1" parent="-1fxc4yib7ofRESS5T0K-19">
          <mxGeometry x="20" y="300" width="240" height="40" as="geometry" />
        </mxCell>
        <mxCell id="-1fxc4yib7ofRESS5T0K-28" value="Goals" style="whiteSpace=wrap;html=1;align=center;rounded=1;fontFamily=Verdana;fontSize=14;" vertex="1" parent="-1fxc4yib7ofRESS5T0K-19">
          <mxGeometry x="40" y="350" width="200" height="40" as="geometry" />
        </mxCell>
        <mxCell id="-1fxc4yib7ofRESS5T0K-29" value="Buckets" style="whiteSpace=wrap;html=1;align=center;rounded=1;fontFamily=Verdana;fontSize=14;" vertex="1" parent="-1fxc4yib7ofRESS5T0K-19">
          <mxGeometry x="40" y="410" width="200" height="40" as="geometry" />
        </mxCell>
        <mxCell id="-1fxc4yib7ofRESS5T0K-30" value="Expenses" style="whiteSpace=wrap;html=1;align=center;rounded=1;fontFamily=Verdana;fontSize=14;" vertex="1" parent="-1fxc4yib7ofRESS5T0K-19">
          <mxGeometry x="40" y="470" width="200" height="40" as="geometry" />
        </mxCell>
      </root>
    </mxGraphModel>
  </diagram>
</mxfile>
